<svg width="110" height="72" viewBox="0 0 110 72" fill="none" xmlns="http://www.w3.org/2000/svg">
<g id="AQI Index">
<g id="Vector">
<path d="M2.6919 72C0.00976337 63.7448 -0.680636 54.9719 0.677147 46.3987C2.03493 37.8255 5.40234 29.6954 10.5041 22.6731C15.6058 15.6508 22.297 9.93565 30.0305 5.99499C37.7641 2.05432 46.3204 4.56128e-06 55 3.63004e-06C63.6796 2.69881e-06 72.2359 2.05432 79.9695 5.99498C87.703 9.93564 94.3942 15.6508 99.4959 22.6731C104.598 29.6954 107.965 37.8255 109.323 46.3987C110.681 54.9719 109.99 63.7448 107.308 72L91.6157 66.9009C93.4932 61.1223 93.9764 54.9813 93.026 48.98C92.0756 42.9788 89.7184 37.2877 86.1471 32.3721C82.5759 27.4565 77.8921 23.4559 72.4786 20.6974C67.0651 17.939 61.0757 16.5009 55 16.5009C48.9243 16.5009 42.9349 17.939 37.5214 20.6974C32.1079 23.4559 27.4241 27.4565 23.8528 32.3721C20.2816 37.2877 17.9245 42.9788 16.974 48.98C16.0236 54.9813 16.5068 61.1223 18.3843 66.9009L2.6919 72Z" fill="#F6F6F6"/>
<path d="M2.6919 72C0.45996 65.1304 -0.397133 57.8885 0.169553 50.6876C0.736239 43.4868 2.71561 36.4681 5.99465 30.0322C9.27368 23.5964 13.7882 17.8695 19.2804 13.1784C24.7725 8.48738 31.1349 4.92411 38.0041 2.69205C44.8733 0.459983 52.1148 -0.397159 59.3153 0.16956C66.5157 0.736279 73.534 2.71576 79.9695 5.99498C86.4049 9.2742 92.1316 13.789 96.8223 19.2815C101.513 24.7739 105.076 31.1366 107.308 38.0062L91.6157 43.1053C90.0533 38.2966 87.5592 33.8427 84.2756 29.9979C80.9921 26.1532 76.9835 22.9929 72.4786 20.6974C67.9738 18.402 63.061 17.0163 58.0207 16.6196C52.9804 16.2229 47.9113 16.8229 43.1028 18.3854C38.2944 19.9478 33.8408 22.4421 29.9963 25.7258C26.1517 29.0095 22.9916 33.0184 20.6963 37.5235C18.4009 42.0286 17.0154 46.9417 16.6187 51.9823C16.222 57.0229 16.822 62.0922 18.3843 66.9009L2.6919 72Z" fill="#F6F6F6"/>
<path d="M2.6919 72C-0.897291 60.953 -0.897291 49.0532 2.6919 38.0062C6.28109 26.9592 13.2752 17.3321 22.6718 10.5047C32.0684 3.67723 43.3851 1.41451e-06 55 3.63004e-06C66.6149 5.84557e-06 77.9316 3.67724 87.3282 10.5047L77.6297 23.8542C71.0521 19.075 63.1304 16.5009 55 16.5009C46.8696 16.5009 38.9479 19.075 32.3703 23.8542C25.7926 28.6334 20.8968 35.3724 18.3843 43.1053C15.8719 50.8382 15.8719 59.168 18.3843 66.9009L2.6919 72Z" fill="#E74C3C"/>
<path d="M2.6919 72C0.00976337 63.7448 -0.680636 54.9719 0.677147 46.3987C2.03493 37.8255 5.40234 29.6954 10.5041 22.6731C15.6058 15.6508 22.297 9.93565 30.0305 5.99499C37.7641 2.05432 46.3204 4.56128e-06 55 3.63004e-06L55 16.5009C48.9243 16.5009 42.9349 17.939 37.5214 20.6974C32.1079 23.4559 27.4241 27.4565 23.8528 32.3721C20.2816 37.2877 17.9245 42.9788 16.974 48.98C16.0236 54.9813 16.5068 61.1223 18.3843 66.9009L2.6919 72Z" fill="#FAB542"/>
<path d="M2.6919 72C-0.897291 60.953 -0.897291 49.0532 2.6919 38.0062C6.28109 26.9592 13.2752 17.3321 22.6718 10.5047L32.3703 23.8542C25.7926 28.6334 20.8968 35.3724 18.3843 43.1053C15.8719 50.8382 15.8719 59.168 18.3843 66.9009L2.6919 72Z" fill="#E6D500"/>
<path d="M2.6919 72C-0.897291 60.953 -0.897291 49.0532 2.6919 38.0062L18.3843 43.1053C15.8719 50.8382 15.8719 59.168 18.3843 66.9009L2.6919 72Z" fill="#88C6A1"/>
<path d="M45.7895 41.3357V53.7808H43.5352V43.5294H43.4622L40.5517 45.3888V43.3228L43.6445 41.3357H45.7895Z" fill="#363939"/>
<path d="M45.7895 41.3357V53.7808H43.5352V43.5294H43.4622L40.5517 45.3888V43.3228L43.6445 41.3357H45.7895Z" fill="black" fill-opacity="0.2"/>
<path d="M45.7895 41.3357V53.7808H43.5352V43.5294H43.4622L40.5517 45.3888V43.3228L43.6445 41.3357H45.7895Z" fill="black" fill-opacity="0.2"/>
<path d="M45.7895 41.3357V53.7808H43.5352V43.5294H43.4622L40.5517 45.3888V43.3228L43.6445 41.3357H45.7895Z" fill="black" fill-opacity="0.2"/>
<path d="M45.7895 41.3357V53.7808H43.5352V43.5294H43.4622L40.5517 45.3888V43.3228L43.6445 41.3357H45.7895Z" fill="black" fill-opacity="0.2"/>
<path d="M45.7895 41.3357V53.7808H43.5352V43.5294H43.4622L40.5517 45.3888V43.3228L43.6445 41.3357H45.7895Z" fill="black" fill-opacity="0.2"/>
<path d="M53.2756 53.951C52.4654 53.951 51.7403 53.799 51.1003 53.4952C50.4602 53.1873 49.9518 52.766 49.5751 52.2312C49.2024 51.6965 49.0039 51.0848 48.9796 50.3961H51.1671C51.2076 50.9065 51.4284 51.3238 51.8294 51.6479C52.2305 51.9679 52.7125 52.1279 53.2756 52.1279C53.7172 52.1279 54.1101 52.0267 54.4544 51.8241C54.7988 51.6215 55.0702 51.34 55.2687 50.9794C55.4672 50.6189 55.5644 50.2077 55.5603 49.7459C55.5644 49.2759 55.4651 48.8587 55.2626 48.4941C55.06 48.1295 54.7826 47.8438 54.4301 47.6372C54.0777 47.4266 53.6726 47.3212 53.2148 47.3212C52.8422 47.3172 52.4756 47.3861 52.115 47.5279C51.7545 47.6696 51.4689 47.856 51.2582 48.0869L49.2227 47.7527L49.8728 41.3357H57.0916V43.2195H51.7383L51.3798 46.5191H51.4527C51.6836 46.2477 52.0097 46.0229 52.431 45.8446C52.8523 45.6623 53.3141 45.5711 53.8164 45.5711C54.5699 45.5711 55.2423 45.7494 55.8338 46.1059C56.4252 46.4584 56.8911 46.9445 57.2313 47.5643C57.5716 48.1841 57.7418 48.8931 57.7418 49.6912C57.7418 50.5136 57.5514 51.2468 57.1706 51.8909C56.7938 52.531 56.2692 53.0354 55.5968 53.4041C54.9284 53.7687 54.1547 53.951 53.2756 53.951Z" fill="#363939"/>
<path d="M53.2756 53.951C52.4654 53.951 51.7403 53.799 51.1003 53.4952C50.4602 53.1873 49.9518 52.766 49.5751 52.2312C49.2024 51.6965 49.0039 51.0848 48.9796 50.3961H51.1671C51.2076 50.9065 51.4284 51.3238 51.8294 51.6479C52.2305 51.9679 52.7125 52.1279 53.2756 52.1279C53.7172 52.1279 54.1101 52.0267 54.4544 51.8241C54.7988 51.6215 55.0702 51.34 55.2687 50.9794C55.4672 50.6189 55.5644 50.2077 55.5603 49.7459C55.5644 49.2759 55.4651 48.8587 55.2626 48.4941C55.06 48.1295 54.7826 47.8438 54.4301 47.6372C54.0777 47.4266 53.6726 47.3212 53.2148 47.3212C52.8422 47.3172 52.4756 47.3861 52.115 47.5279C51.7545 47.6696 51.4689 47.856 51.2582 48.0869L49.2227 47.7527L49.8728 41.3357H57.0916V43.2195H51.7383L51.3798 46.5191H51.4527C51.6836 46.2477 52.0097 46.0229 52.431 45.8446C52.8523 45.6623 53.3141 45.5711 53.8164 45.5711C54.5699 45.5711 55.2423 45.7494 55.8338 46.1059C56.4252 46.4584 56.8911 46.9445 57.2313 47.5643C57.5716 48.1841 57.7418 48.8931 57.7418 49.6912C57.7418 50.5136 57.5514 51.2468 57.1706 51.8909C56.7938 52.531 56.2692 53.0354 55.5968 53.4041C54.9284 53.7687 54.1547 53.951 53.2756 53.951Z" fill="black" fill-opacity="0.2"/>
<path d="M53.2756 53.951C52.4654 53.951 51.7403 53.799 51.1003 53.4952C50.4602 53.1873 49.9518 52.766 49.5751 52.2312C49.2024 51.6965 49.0039 51.0848 48.9796 50.3961H51.1671C51.2076 50.9065 51.4284 51.3238 51.8294 51.6479C52.2305 51.9679 52.7125 52.1279 53.2756 52.1279C53.7172 52.1279 54.1101 52.0267 54.4544 51.8241C54.7988 51.6215 55.0702 51.34 55.2687 50.9794C55.4672 50.6189 55.5644 50.2077 55.5603 49.7459C55.5644 49.2759 55.4651 48.8587 55.2626 48.4941C55.06 48.1295 54.7826 47.8438 54.4301 47.6372C54.0777 47.4266 53.6726 47.3212 53.2148 47.3212C52.8422 47.3172 52.4756 47.3861 52.115 47.5279C51.7545 47.6696 51.4689 47.856 51.2582 48.0869L49.2227 47.7527L49.8728 41.3357H57.0916V43.2195H51.7383L51.3798 46.5191H51.4527C51.6836 46.2477 52.0097 46.0229 52.431 45.8446C52.8523 45.6623 53.3141 45.5711 53.8164 45.5711C54.5699 45.5711 55.2423 45.7494 55.8338 46.1059C56.4252 46.4584 56.8911 46.9445 57.2313 47.5643C57.5716 48.1841 57.7418 48.8931 57.7418 49.6912C57.7418 50.5136 57.5514 51.2468 57.1706 51.8909C56.7938 52.531 56.2692 53.0354 55.5968 53.4041C54.9284 53.7687 54.1547 53.951 53.2756 53.951Z" fill="black" fill-opacity="0.2"/>
<path d="M53.2756 53.951C52.4654 53.951 51.7403 53.799 51.1003 53.4952C50.4602 53.1873 49.9518 52.766 49.5751 52.2312C49.2024 51.6965 49.0039 51.0848 48.9796 50.3961H51.1671C51.2076 50.9065 51.4284 51.3238 51.8294 51.6479C52.2305 51.9679 52.7125 52.1279 53.2756 52.1279C53.7172 52.1279 54.1101 52.0267 54.4544 51.8241C54.7988 51.6215 55.0702 51.34 55.2687 50.9794C55.4672 50.6189 55.5644 50.2077 55.5603 49.7459C55.5644 49.2759 55.4651 48.8587 55.2626 48.4941C55.06 48.1295 54.7826 47.8438 54.4301 47.6372C54.0777 47.4266 53.6726 47.3212 53.2148 47.3212C52.8422 47.3172 52.4756 47.3861 52.115 47.5279C51.7545 47.6696 51.4689 47.856 51.2582 48.0869L49.2227 47.7527L49.8728 41.3357H57.0916V43.2195H51.7383L51.3798 46.5191H51.4527C51.6836 46.2477 52.0097 46.0229 52.431 45.8446C52.8523 45.6623 53.3141 45.5711 53.8164 45.5711C54.5699 45.5711 55.2423 45.7494 55.8338 46.1059C56.4252 46.4584 56.8911 46.9445 57.2313 47.5643C57.5716 48.1841 57.7418 48.8931 57.7418 49.6912C57.7418 50.5136 57.5514 51.2468 57.1706 51.8909C56.7938 52.531 56.2692 53.0354 55.5968 53.4041C54.9284 53.7687 54.1547 53.951 53.2756 53.951Z" fill="black" fill-opacity="0.2"/>
<path d="M53.2756 53.951C52.4654 53.951 51.7403 53.799 51.1003 53.4952C50.4602 53.1873 49.9518 52.766 49.5751 52.2312C49.2024 51.6965 49.0039 51.0848 48.9796 50.3961H51.1671C51.2076 50.9065 51.4284 51.3238 51.8294 51.6479C52.2305 51.9679 52.7125 52.1279 53.2756 52.1279C53.7172 52.1279 54.1101 52.0267 54.4544 51.8241C54.7988 51.6215 55.0702 51.34 55.2687 50.9794C55.4672 50.6189 55.5644 50.2077 55.5603 49.7459C55.5644 49.2759 55.4651 48.8587 55.2626 48.4941C55.06 48.1295 54.7826 47.8438 54.4301 47.6372C54.0777 47.4266 53.6726 47.3212 53.2148 47.3212C52.8422 47.3172 52.4756 47.3861 52.115 47.5279C51.7545 47.6696 51.4689 47.856 51.2582 48.0869L49.2227 47.7527L49.8728 41.3357H57.0916V43.2195H51.7383L51.3798 46.5191H51.4527C51.6836 46.2477 52.0097 46.0229 52.431 45.8446C52.8523 45.6623 53.3141 45.5711 53.8164 45.5711C54.5699 45.5711 55.2423 45.7494 55.8338 46.1059C56.4252 46.4584 56.8911 46.9445 57.2313 47.5643C57.5716 48.1841 57.7418 48.8931 57.7418 49.6912C57.7418 50.5136 57.5514 51.2468 57.1706 51.8909C56.7938 52.531 56.2692 53.0354 55.5968 53.4041C54.9284 53.7687 54.1547 53.951 53.2756 53.951Z" fill="black" fill-opacity="0.2"/>
<path d="M53.2756 53.951C52.4654 53.951 51.7403 53.799 51.1003 53.4952C50.4602 53.1873 49.9518 52.766 49.5751 52.2312C49.2024 51.6965 49.0039 51.0848 48.9796 50.3961H51.1671C51.2076 50.9065 51.4284 51.3238 51.8294 51.6479C52.2305 51.9679 52.7125 52.1279 53.2756 52.1279C53.7172 52.1279 54.1101 52.0267 54.4544 51.8241C54.7988 51.6215 55.0702 51.34 55.2687 50.9794C55.4672 50.6189 55.5644 50.2077 55.5603 49.7459C55.5644 49.2759 55.4651 48.8587 55.2626 48.4941C55.06 48.1295 54.7826 47.8438 54.4301 47.6372C54.0777 47.4266 53.6726 47.3212 53.2148 47.3212C52.8422 47.3172 52.4756 47.3861 52.115 47.5279C51.7545 47.6696 51.4689 47.856 51.2582 48.0869L49.2227 47.7527L49.8728 41.3357H57.0916V43.2195H51.7383L51.3798 46.5191H51.4527C51.6836 46.2477 52.0097 46.0229 52.431 45.8446C52.8523 45.6623 53.3141 45.5711 53.8164 45.5711C54.5699 45.5711 55.2423 45.7494 55.8338 46.1059C56.4252 46.4584 56.8911 46.9445 57.2313 47.5643C57.5716 48.1841 57.7418 48.8931 57.7418 49.6912C57.7418 50.5136 57.5514 51.2468 57.1706 51.8909C56.7938 52.531 56.2692 53.0354 55.5968 53.4041C54.9284 53.7687 54.1547 53.951 53.2756 53.951Z" fill="black" fill-opacity="0.2"/>
<path d="M64.3346 53.951C63.7392 53.9469 63.1578 53.8436 62.5907 53.641C62.0236 53.4344 61.5132 53.1002 61.0595 52.6384C60.6058 52.1725 60.2452 51.5547 59.9779 50.785C59.7105 50.0112 59.5788 49.0531 59.5829 47.9107C59.5829 46.8452 59.6963 45.8952 59.9232 45.0607C60.15 44.2262 60.4761 43.5213 60.9015 42.946C61.3268 42.3667 61.8393 41.9251 62.4388 41.6213C63.0424 41.3174 63.7169 41.1655 64.4622 41.1655C65.2441 41.1655 65.9368 41.3195 66.5404 41.6273C67.148 41.9352 67.6382 42.3566 68.0108 42.8913C68.3835 43.422 68.6144 44.0216 68.7036 44.69H66.4857C66.3723 44.212 66.1393 43.8312 65.7869 43.5476C65.4385 43.26 64.997 43.1161 64.4622 43.1161C63.5994 43.1161 62.935 43.4909 62.4692 44.2403C62.0074 44.9898 61.7744 46.0188 61.7704 47.3273H61.8555C62.054 46.9708 62.3112 46.665 62.6272 46.4097C62.9431 46.1545 63.2996 45.958 63.6966 45.8203C64.0977 45.6785 64.521 45.6076 64.9666 45.6076C65.6957 45.6076 66.35 45.7818 66.9293 46.1302C67.5126 46.4786 67.9744 46.9587 68.3147 47.5704C68.6549 48.1781 68.8231 48.8749 68.819 49.6608C68.8231 50.4791 68.6367 51.2144 68.26 51.8666C67.8832 52.5148 67.3587 53.0253 66.6862 53.398C66.0137 53.7707 65.2299 53.955 64.3346 53.951ZM64.3225 52.1279C64.764 52.1279 65.159 52.0206 65.5074 51.8059C65.8558 51.5912 66.1312 51.3015 66.3338 50.9369C66.5363 50.5723 66.6356 50.1631 66.6315 49.7094C66.6356 49.2638 66.5383 48.8607 66.3398 48.5001C66.1454 48.1396 65.876 47.854 65.5317 47.6433C65.1874 47.4327 64.7944 47.3273 64.3529 47.3273C64.0247 47.3273 63.7189 47.3901 63.4353 47.5157C63.1518 47.6413 62.9047 47.8155 62.694 48.0383C62.4834 48.2571 62.3173 48.5123 62.1957 48.804C62.0783 49.0916 62.0175 49.3995 62.0135 49.7276C62.0175 50.1611 62.1188 50.5601 62.3173 50.9248C62.5158 51.2894 62.7892 51.581 63.1376 51.7998C63.486 52.0186 63.8809 52.1279 64.3225 52.1279Z" fill="#363939"/>
<path d="M64.3346 53.951C63.7392 53.9469 63.1578 53.8436 62.5907 53.641C62.0236 53.4344 61.5132 53.1002 61.0595 52.6384C60.6058 52.1725 60.2452 51.5547 59.9779 50.785C59.7105 50.0112 59.5788 49.0531 59.5829 47.9107C59.5829 46.8452 59.6963 45.8952 59.9232 45.0607C60.15 44.2262 60.4761 43.5213 60.9015 42.946C61.3268 42.3667 61.8393 41.9251 62.4388 41.6213C63.0424 41.3174 63.7169 41.1655 64.4622 41.1655C65.2441 41.1655 65.9368 41.3195 66.5404 41.6273C67.148 41.9352 67.6382 42.3566 68.0108 42.8913C68.3835 43.422 68.6144 44.0216 68.7036 44.69H66.4857C66.3723 44.212 66.1393 43.8312 65.7869 43.5476C65.4385 43.26 64.997 43.1161 64.4622 43.1161C63.5994 43.1161 62.935 43.4909 62.4692 44.2403C62.0074 44.9898 61.7744 46.0188 61.7704 47.3273H61.8555C62.054 46.9708 62.3112 46.665 62.6272 46.4097C62.9431 46.1545 63.2996 45.958 63.6966 45.8203C64.0977 45.6785 64.521 45.6076 64.9666 45.6076C65.6957 45.6076 66.35 45.7818 66.9293 46.1302C67.5126 46.4786 67.9744 46.9587 68.3147 47.5704C68.6549 48.1781 68.8231 48.8749 68.819 49.6608C68.8231 50.4791 68.6367 51.2144 68.26 51.8666C67.8832 52.5148 67.3587 53.0253 66.6862 53.398C66.0137 53.7707 65.2299 53.955 64.3346 53.951ZM64.3225 52.1279C64.764 52.1279 65.159 52.0206 65.5074 51.8059C65.8558 51.5912 66.1312 51.3015 66.3338 50.9369C66.5363 50.5723 66.6356 50.1631 66.6315 49.7094C66.6356 49.2638 66.5383 48.8607 66.3398 48.5001C66.1454 48.1396 65.876 47.854 65.5317 47.6433C65.1874 47.4327 64.7944 47.3273 64.3529 47.3273C64.0247 47.3273 63.7189 47.3901 63.4353 47.5157C63.1518 47.6413 62.9047 47.8155 62.694 48.0383C62.4834 48.2571 62.3173 48.5123 62.1957 48.804C62.0783 49.0916 62.0175 49.3995 62.0135 49.7276C62.0175 50.1611 62.1188 50.5601 62.3173 50.9248C62.5158 51.2894 62.7892 51.581 63.1376 51.7998C63.486 52.0186 63.8809 52.1279 64.3225 52.1279Z" fill="black" fill-opacity="0.2"/>
<path d="M64.3346 53.951C63.7392 53.9469 63.1578 53.8436 62.5907 53.641C62.0236 53.4344 61.5132 53.1002 61.0595 52.6384C60.6058 52.1725 60.2452 51.5547 59.9779 50.785C59.7105 50.0112 59.5788 49.0531 59.5829 47.9107C59.5829 46.8452 59.6963 45.8952 59.9232 45.0607C60.15 44.2262 60.4761 43.5213 60.9015 42.946C61.3268 42.3667 61.8393 41.9251 62.4388 41.6213C63.0424 41.3174 63.7169 41.1655 64.4622 41.1655C65.2441 41.1655 65.9368 41.3195 66.5404 41.6273C67.148 41.9352 67.6382 42.3566 68.0108 42.8913C68.3835 43.422 68.6144 44.0216 68.7036 44.69H66.4857C66.3723 44.212 66.1393 43.8312 65.7869 43.5476C65.4385 43.26 64.997 43.1161 64.4622 43.1161C63.5994 43.1161 62.935 43.4909 62.4692 44.2403C62.0074 44.9898 61.7744 46.0188 61.7704 47.3273H61.8555C62.054 46.9708 62.3112 46.665 62.6272 46.4097C62.9431 46.1545 63.2996 45.958 63.6966 45.8203C64.0977 45.6785 64.521 45.6076 64.9666 45.6076C65.6957 45.6076 66.35 45.7818 66.9293 46.1302C67.5126 46.4786 67.9744 46.9587 68.3147 47.5704C68.6549 48.1781 68.8231 48.8749 68.819 49.6608C68.8231 50.4791 68.6367 51.2144 68.26 51.8666C67.8832 52.5148 67.3587 53.0253 66.6862 53.398C66.0137 53.7707 65.2299 53.955 64.3346 53.951ZM64.3225 52.1279C64.764 52.1279 65.159 52.0206 65.5074 51.8059C65.8558 51.5912 66.1312 51.3015 66.3338 50.9369C66.5363 50.5723 66.6356 50.1631 66.6315 49.7094C66.6356 49.2638 66.5383 48.8607 66.3398 48.5001C66.1454 48.1396 65.876 47.854 65.5317 47.6433C65.1874 47.4327 64.7944 47.3273 64.3529 47.3273C64.0247 47.3273 63.7189 47.3901 63.4353 47.5157C63.1518 47.6413 62.9047 47.8155 62.694 48.0383C62.4834 48.2571 62.3173 48.5123 62.1957 48.804C62.0783 49.0916 62.0175 49.3995 62.0135 49.7276C62.0175 50.1611 62.1188 50.5601 62.3173 50.9248C62.5158 51.2894 62.7892 51.581 63.1376 51.7998C63.486 52.0186 63.8809 52.1279 64.3225 52.1279Z" fill="black" fill-opacity="0.2"/>
<path d="M64.3346 53.951C63.7392 53.9469 63.1578 53.8436 62.5907 53.641C62.0236 53.4344 61.5132 53.1002 61.0595 52.6384C60.6058 52.1725 60.2452 51.5547 59.9779 50.785C59.7105 50.0112 59.5788 49.0531 59.5829 47.9107C59.5829 46.8452 59.6963 45.8952 59.9232 45.0607C60.15 44.2262 60.4761 43.5213 60.9015 42.946C61.3268 42.3667 61.8393 41.9251 62.4388 41.6213C63.0424 41.3174 63.7169 41.1655 64.4622 41.1655C65.2441 41.1655 65.9368 41.3195 66.5404 41.6273C67.148 41.9352 67.6382 42.3566 68.0108 42.8913C68.3835 43.422 68.6144 44.0216 68.7036 44.69H66.4857C66.3723 44.212 66.1393 43.8312 65.7869 43.5476C65.4385 43.26 64.997 43.1161 64.4622 43.1161C63.5994 43.1161 62.935 43.4909 62.4692 44.2403C62.0074 44.9898 61.7744 46.0188 61.7704 47.3273H61.8555C62.054 46.9708 62.3112 46.665 62.6272 46.4097C62.9431 46.1545 63.2996 45.958 63.6966 45.8203C64.0977 45.6785 64.521 45.6076 64.9666 45.6076C65.6957 45.6076 66.35 45.7818 66.9293 46.1302C67.5126 46.4786 67.9744 46.9587 68.3147 47.5704C68.6549 48.1781 68.8231 48.8749 68.819 49.6608C68.8231 50.4791 68.6367 51.2144 68.26 51.8666C67.8832 52.5148 67.3587 53.0253 66.6862 53.398C66.0137 53.7707 65.2299 53.955 64.3346 53.951ZM64.3225 52.1279C64.764 52.1279 65.159 52.0206 65.5074 51.8059C65.8558 51.5912 66.1312 51.3015 66.3338 50.9369C66.5363 50.5723 66.6356 50.1631 66.6315 49.7094C66.6356 49.2638 66.5383 48.8607 66.3398 48.5001C66.1454 48.1396 65.876 47.854 65.5317 47.6433C65.1874 47.4327 64.7944 47.3273 64.3529 47.3273C64.0247 47.3273 63.7189 47.3901 63.4353 47.5157C63.1518 47.6413 62.9047 47.8155 62.694 48.0383C62.4834 48.2571 62.3173 48.5123 62.1957 48.804C62.0783 49.0916 62.0175 49.3995 62.0135 49.7276C62.0175 50.1611 62.1188 50.5601 62.3173 50.9248C62.5158 51.2894 62.7892 51.581 63.1376 51.7998C63.486 52.0186 63.8809 52.1279 64.3225 52.1279Z" fill="black" fill-opacity="0.2"/>
<path d="M64.3346 53.951C63.7392 53.9469 63.1578 53.8436 62.5907 53.641C62.0236 53.4344 61.5132 53.1002 61.0595 52.6384C60.6058 52.1725 60.2452 51.5547 59.9779 50.785C59.7105 50.0112 59.5788 49.0531 59.5829 47.9107C59.5829 46.8452 59.6963 45.8952 59.9232 45.0607C60.15 44.2262 60.4761 43.5213 60.9015 42.946C61.3268 42.3667 61.8393 41.9251 62.4388 41.6213C63.0424 41.3174 63.7169 41.1655 64.4622 41.1655C65.2441 41.1655 65.9368 41.3195 66.5404 41.6273C67.148 41.9352 67.6382 42.3566 68.0108 42.8913C68.3835 43.422 68.6144 44.0216 68.7036 44.69H66.4857C66.3723 44.212 66.1393 43.8312 65.7869 43.5476C65.4385 43.26 64.997 43.1161 64.4622 43.1161C63.5994 43.1161 62.935 43.4909 62.4692 44.2403C62.0074 44.9898 61.7744 46.0188 61.7704 47.3273H61.8555C62.054 46.9708 62.3112 46.665 62.6272 46.4097C62.9431 46.1545 63.2996 45.958 63.6966 45.8203C64.0977 45.6785 64.521 45.6076 64.9666 45.6076C65.6957 45.6076 66.35 45.7818 66.9293 46.1302C67.5126 46.4786 67.9744 46.9587 68.3147 47.5704C68.6549 48.1781 68.8231 48.8749 68.819 49.6608C68.8231 50.4791 68.6367 51.2144 68.26 51.8666C67.8832 52.5148 67.3587 53.0253 66.6862 53.398C66.0137 53.7707 65.2299 53.955 64.3346 53.951ZM64.3225 52.1279C64.764 52.1279 65.159 52.0206 65.5074 51.8059C65.8558 51.5912 66.1312 51.3015 66.3338 50.9369C66.5363 50.5723 66.6356 50.1631 66.6315 49.7094C66.6356 49.2638 66.5383 48.8607 66.3398 48.5001C66.1454 48.1396 65.876 47.854 65.5317 47.6433C65.1874 47.4327 64.7944 47.3273 64.3529 47.3273C64.0247 47.3273 63.7189 47.3901 63.4353 47.5157C63.1518 47.6413 62.9047 47.8155 62.694 48.0383C62.4834 48.2571 62.3173 48.5123 62.1957 48.804C62.0783 49.0916 62.0175 49.3995 62.0135 49.7276C62.0175 50.1611 62.1188 50.5601 62.3173 50.9248C62.5158 51.2894 62.7892 51.581 63.1376 51.7998C63.486 52.0186 63.8809 52.1279 64.3225 52.1279Z" fill="black" fill-opacity="0.2"/>
<path d="M64.3346 53.951C63.7392 53.9469 63.1578 53.8436 62.5907 53.641C62.0236 53.4344 61.5132 53.1002 61.0595 52.6384C60.6058 52.1725 60.2452 51.5547 59.9779 50.785C59.7105 50.0112 59.5788 49.0531 59.5829 47.9107C59.5829 46.8452 59.6963 45.8952 59.9232 45.0607C60.15 44.2262 60.4761 43.5213 60.9015 42.946C61.3268 42.3667 61.8393 41.9251 62.4388 41.6213C63.0424 41.3174 63.7169 41.1655 64.4622 41.1655C65.2441 41.1655 65.9368 41.3195 66.5404 41.6273C67.148 41.9352 67.6382 42.3566 68.0108 42.8913C68.3835 43.422 68.6144 44.0216 68.7036 44.69H66.4857C66.3723 44.212 66.1393 43.8312 65.7869 43.5476C65.4385 43.26 64.997 43.1161 64.4622 43.1161C63.5994 43.1161 62.935 43.4909 62.4692 44.2403C62.0074 44.9898 61.7744 46.0188 61.7704 47.3273H61.8555C62.054 46.9708 62.3112 46.665 62.6272 46.4097C62.9431 46.1545 63.2996 45.958 63.6966 45.8203C64.0977 45.6785 64.521 45.6076 64.9666 45.6076C65.6957 45.6076 66.35 45.7818 66.9293 46.1302C67.5126 46.4786 67.9744 46.9587 68.3147 47.5704C68.6549 48.1781 68.8231 48.8749 68.819 49.6608C68.8231 50.4791 68.6367 51.2144 68.26 51.8666C67.8832 52.5148 67.3587 53.0253 66.6862 53.398C66.0137 53.7707 65.2299 53.955 64.3346 53.951ZM64.3225 52.1279C64.764 52.1279 65.159 52.0206 65.5074 51.8059C65.8558 51.5912 66.1312 51.3015 66.3338 50.9369C66.5363 50.5723 66.6356 50.1631 66.6315 49.7094C66.6356 49.2638 66.5383 48.8607 66.3398 48.5001C66.1454 48.1396 65.876 47.854 65.5317 47.6433C65.1874 47.4327 64.7944 47.3273 64.3529 47.3273C64.0247 47.3273 63.7189 47.3901 63.4353 47.5157C63.1518 47.6413 62.9047 47.8155 62.694 48.0383C62.4834 48.2571 62.3173 48.5123 62.1957 48.804C62.0783 49.0916 62.0175 49.3995 62.0135 49.7276C62.0175 50.1611 62.1188 50.5601 62.3173 50.9248C62.5158 51.2894 62.7892 51.581 63.1376 51.7998C63.486 52.0186 63.8809 52.1279 64.3225 52.1279Z" fill="black" fill-opacity="0.2"/>
<path d="M47.7452 69.0595H46.6063L49.1654 61.9479H50.4049L52.964 69.0595H51.8251L49.8147 63.2397H49.7591L47.7452 69.0595ZM47.9362 66.2746H51.6306V67.1774H47.9362V66.2746Z" fill="#797A7B"/>
<path d="M56.2713 66.7538H57.3268L58.0699 67.7226L58.4206 68.1532L59.6046 69.6984H58.5074L57.7157 68.6671L57.4449 68.292L56.2713 66.7538ZM59.8338 65.5037C59.8338 66.263 59.6949 66.9158 59.4171 67.4621C59.1393 68.0061 58.7585 68.4252 58.2747 68.7192C57.7933 69.0108 57.2458 69.1567 56.6324 69.1567C56.0166 69.1567 55.4669 69.0108 54.9831 68.7192C54.5016 68.4252 54.122 68.005 53.8442 67.4587C53.5664 66.9123 53.4275 66.2607 53.4275 65.5037C53.4275 64.7444 53.5664 64.0927 53.8442 63.5487C54.122 63.0024 54.5016 62.5834 54.9831 62.2917C55.4669 61.9977 56.0166 61.8507 56.6324 61.8507C57.2458 61.8507 57.7933 61.9977 58.2747 62.2917C58.7585 62.5834 59.1393 63.0024 59.4171 63.5487C59.6949 64.0927 59.8338 64.7444 59.8338 65.5037ZM58.7713 65.5037C58.7713 64.925 58.6775 64.4377 58.49 64.0418C58.3048 63.6436 58.0502 63.3427 57.7261 63.139C57.4044 62.9329 57.0398 62.8299 56.6324 62.8299C56.2227 62.8299 55.8569 62.9329 55.5352 63.139C55.2134 63.3427 54.9588 63.6436 54.7713 64.0418C54.5861 64.4377 54.4935 64.925 54.4935 65.5037C54.4935 66.0824 54.5861 66.5709 54.7713 66.9691C54.9588 67.3649 55.2134 67.6659 55.5352 67.8719C55.8569 68.0756 56.2227 68.1775 56.6324 68.1775C57.0398 68.1775 57.4044 68.0756 57.7261 67.8719C58.0502 67.6659 58.3048 67.3649 58.49 66.9691C58.6775 66.5709 58.7713 66.0824 58.7713 65.5037Z" fill="#797A7B"/>
<path d="M62.2444 61.9479V69.0595H61.1714V61.9479H62.2444Z" fill="#797A7B"/>
</g>
</g>
</svg>
